<mxfile host="app.diagrams.net" modified="2024-04-26T09:31:53.486Z" agent="Mozilla/5.0 (Windows NT 10.0; Win64; x64) AppleWebKit/537.36 (KHTML, like Gecko) Chrome/124.0.0.0 Safari/537.36" etag="U0dwu10QY6v5PrgKg5wL" version="24.3.0" type="device">
  <diagram name="Página-1" id="PfxU_SR6izgqUmBxl7jM">
    <mxGraphModel dx="2261" dy="1949" grid="1" gridSize="10" guides="1" tooltips="1" connect="1" arrows="1" fold="1" page="1" pageScale="1" pageWidth="827" pageHeight="1169" math="0" shadow="0">
      <root>
        <mxCell id="0" />
        <mxCell id="1" parent="0" />
        <mxCell id="2" value="Acciones Disponibles" style="whiteSpace=wrap;strokeWidth=2;verticalAlign=top;" parent="1" vertex="1">
          <mxGeometry x="-756" y="-850" width="685.5" height="400" as="geometry" />
        </mxCell>
        <mxCell id="3" value="Ver Listas" style="rounded=1;absoluteArcSize=1;arcSize=14;whiteSpace=wrap;strokeWidth=2;" parent="1" vertex="1">
          <mxGeometry x="-338.5" y="-802" width="79" height="34" as="geometry" />
        </mxCell>
        <mxCell id="4" value="Lista personal" style="rounded=1;absoluteArcSize=1;arcSize=14;whiteSpace=wrap;strokeWidth=2;" parent="1" vertex="1">
          <mxGeometry x="-506" y="-718" width="124" height="34" as="geometry" />
        </mxCell>
        <mxCell id="5" value="Mas populares" style="rounded=1;absoluteArcSize=1;arcSize=14;whiteSpace=wrap;strokeWidth=2;" parent="1" vertex="1">
          <mxGeometry x="-373" y="-718" width="148" height="34" as="geometry" />
        </mxCell>
        <mxCell id="6" value="Próximos estrenos" style="rounded=1;absoluteArcSize=1;arcSize=14;whiteSpace=wrap;strokeWidth=2;" parent="1" vertex="1">
          <mxGeometry x="-196" y="-718" width="103" height="34" as="geometry" />
        </mxCell>
        <mxCell id="7" value="Opciones de Usuario" style="whiteSpace=wrap;strokeWidth=2;verticalAlign=top;" parent="1" vertex="1">
          <mxGeometry x="-586" y="-961" width="301" height="84" as="geometry" />
        </mxCell>
        <mxCell id="8" value="Registrarse" style="rounded=1;absoluteArcSize=1;arcSize=14;whiteSpace=wrap;strokeWidth=2;" parent="1" vertex="1">
          <mxGeometry x="-551" y="-936" width="94" height="34" as="geometry" />
        </mxCell>
        <mxCell id="9" value="Loguearse" style="rounded=1;absoluteArcSize=1;arcSize=14;whiteSpace=wrap;strokeWidth=2;" parent="1" vertex="1">
          <mxGeometry x="-407" y="-936" width="87" height="34" as="geometry" />
        </mxCell>
        <mxCell id="10" value="Usuarios" style="whiteSpace=wrap;strokeWidth=2;verticalAlign=top;" parent="1" vertex="1">
          <mxGeometry x="-558" y="-1130" width="240" height="119" as="geometry" />
        </mxCell>
        <mxCell id="11" value="Usuario" style="ellipse;aspect=fixed;strokeWidth=2;whiteSpace=wrap;" parent="1" vertex="1">
          <mxGeometry x="-468" y="-1105" width="69" height="69" as="geometry" />
        </mxCell>
        <mxCell id="12" value="" style="curved=1;startArrow=none;endArrow=block;exitX=0.003283514492753623;exitY=0.9191638324202187;entryX=0.5028050199468085;entryY=-0.006433823529411764;" parent="1" source="11" target="8" edge="1">
          <mxGeometry relative="1" as="geometry">
            <Array as="points">
              <mxPoint x="-504" y="-1011" />
            </Array>
          </mxGeometry>
        </mxCell>
        <mxCell id="13" value="" style="curved=1;startArrow=none;endArrow=block;exitX=1.0001132246376812;exitY=0.9191638324202187;entryX=0.5054103807471264;entryY=-0.006433823529411764;" parent="1" source="11" target="9" edge="1">
          <mxGeometry relative="1" as="geometry">
            <Array as="points">
              <mxPoint x="-363" y="-1011" />
            </Array>
          </mxGeometry>
        </mxCell>
        <mxCell id="14" value="" style="startArrow=none;endArrow=block;exitX=0.5028050199468085;exitY=0.9935661764705882;entryX=0.389;entryY=0.006;entryDx=0;entryDy=0;entryPerimeter=0;" parent="1" source="8" target="2" edge="1">
          <mxGeometry relative="1" as="geometry" />
        </mxCell>
        <mxCell id="15" value="" style="startArrow=none;endArrow=block;exitX=0.5054103807471264;exitY=0.9935661764705882;entryX=0.553;entryY=0;entryDx=0;entryDy=0;entryPerimeter=0;" parent="1" source="9" target="2" edge="1">
          <mxGeometry relative="1" as="geometry" />
        </mxCell>
        <mxCell id="16" value="" style="startArrow=none;endArrow=block;exitX=0.00390625;exitY=0.7548868833570552;entryX=0.4983933971774194;entryY=-0.006433823529411764;rounded=0;curved=1;" parent="1" source="3" target="4" edge="1">
          <mxGeometry relative="1" as="geometry">
            <Array as="points">
              <mxPoint x="-426" y="-790" />
            </Array>
          </mxGeometry>
        </mxCell>
        <mxCell id="17" value="" style="curved=1;startArrow=none;endArrow=block;exitX=0.5014833860759493;exitY=0.9935661764705882;entryX=0.49741342905405406;entryY=-0.006433823529411764;" parent="1" source="3" target="5" edge="1">
          <mxGeometry relative="1" as="geometry">
            <Array as="points" />
          </mxGeometry>
        </mxCell>
        <mxCell id="18" value="" style="curved=1;startArrow=none;endArrow=block;exitX=0.9990605221518988;exitY=0.8062033009363293;entryX=0.4910094246031746;entryY=-0.006433823529411764;" parent="1" source="3" target="6" edge="1">
          <mxGeometry relative="1" as="geometry">
            <Array as="points">
              <mxPoint x="-166" y="-780" />
            </Array>
          </mxGeometry>
        </mxCell>
        <mxCell id="z84m68vEmCcqaCNKbEng-18" value="Ver detalles" style="rounded=1;absoluteArcSize=1;arcSize=14;whiteSpace=wrap;strokeWidth=2;" parent="1" vertex="1">
          <mxGeometry x="-361" y="-610" width="124" height="34" as="geometry" />
        </mxCell>
        <mxCell id="z84m68vEmCcqaCNKbEng-20" value="" style="curved=1;startArrow=none;endArrow=block;exitX=0.5;exitY=1;entryX=0.5;entryY=0;exitDx=0;exitDy=0;entryDx=0;entryDy=0;" parent="1" source="5" target="z84m68vEmCcqaCNKbEng-18" edge="1">
          <mxGeometry relative="1" as="geometry">
            <Array as="points" />
            <mxPoint x="-363" y="-758" as="sourcePoint" />
            <mxPoint x="-364" y="-708" as="targetPoint" />
          </mxGeometry>
        </mxCell>
        <mxCell id="z84m68vEmCcqaCNKbEng-21" value="Calificar" style="rounded=1;absoluteArcSize=1;arcSize=14;whiteSpace=wrap;strokeWidth=2;" parent="1" vertex="1">
          <mxGeometry x="-435.5" y="-540" width="124" height="34" as="geometry" />
        </mxCell>
        <mxCell id="z84m68vEmCcqaCNKbEng-22" value="Agregar a lista personal" style="rounded=1;absoluteArcSize=1;arcSize=14;whiteSpace=wrap;strokeWidth=2;" parent="1" vertex="1">
          <mxGeometry x="-286" y="-540" width="124" height="34" as="geometry" />
        </mxCell>
        <mxCell id="z84m68vEmCcqaCNKbEng-23" value="" style="curved=1;startArrow=none;endArrow=block;exitX=0.5;exitY=1;entryX=0.5;entryY=0;exitDx=0;exitDy=0;entryDx=0;entryDy=0;" parent="1" source="6" target="z84m68vEmCcqaCNKbEng-18" edge="1">
          <mxGeometry relative="1" as="geometry">
            <Array as="points" />
            <mxPoint x="-363" y="-674" as="sourcePoint" />
            <mxPoint x="-262" y="-610" as="targetPoint" />
          </mxGeometry>
        </mxCell>
        <mxCell id="z84m68vEmCcqaCNKbEng-24" value="" style="curved=1;startArrow=none;endArrow=block;exitX=0.5;exitY=1;entryX=0.5;entryY=0;exitDx=0;exitDy=0;entryDx=0;entryDy=0;" parent="1" source="z84m68vEmCcqaCNKbEng-18" target="z84m68vEmCcqaCNKbEng-21" edge="1">
          <mxGeometry relative="1" as="geometry">
            <Array as="points" />
            <mxPoint x="-353" y="-664" as="sourcePoint" />
            <mxPoint x="-252" y="-600" as="targetPoint" />
          </mxGeometry>
        </mxCell>
        <mxCell id="z84m68vEmCcqaCNKbEng-25" value="" style="curved=1;startArrow=none;endArrow=block;exitX=0.5;exitY=1;entryX=0.5;entryY=0;exitDx=0;exitDy=0;entryDx=0;entryDy=0;" parent="1" source="z84m68vEmCcqaCNKbEng-18" target="z84m68vEmCcqaCNKbEng-22" edge="1">
          <mxGeometry relative="1" as="geometry">
            <Array as="points" />
            <mxPoint x="-343" y="-654" as="sourcePoint" />
            <mxPoint x="-242" y="-590" as="targetPoint" />
          </mxGeometry>
        </mxCell>
        <mxCell id="z84m68vEmCcqaCNKbEng-26" value="" style="curved=1;startArrow=none;endArrow=block;exitX=0.5;exitY=1;entryX=0.5;entryY=0;exitDx=0;exitDy=0;entryDx=0;entryDy=0;" parent="1" source="4" target="z84m68vEmCcqaCNKbEng-18" edge="1">
          <mxGeometry relative="1" as="geometry">
            <Array as="points" />
            <mxPoint x="-363" y="-674" as="sourcePoint" />
            <mxPoint x="-365" y="-610" as="targetPoint" />
          </mxGeometry>
        </mxCell>
        <mxCell id="z84m68vEmCcqaCNKbEng-28" value="Ver perfil" style="rounded=1;absoluteArcSize=1;arcSize=14;whiteSpace=wrap;strokeWidth=2;" parent="1" vertex="1">
          <mxGeometry x="-656" y="-790" width="79" height="34" as="geometry" />
        </mxCell>
        <mxCell id="z84m68vEmCcqaCNKbEng-29" value="Consultar datos perfil" style="rounded=1;absoluteArcSize=1;arcSize=14;whiteSpace=wrap;strokeWidth=2;" parent="1" vertex="1">
          <mxGeometry x="-716" y="-684" width="79" height="34" as="geometry" />
        </mxCell>
        <mxCell id="z84m68vEmCcqaCNKbEng-35" style="edgeStyle=orthogonalEdgeStyle;rounded=0;orthogonalLoop=1;jettySize=auto;html=1;exitX=0.5;exitY=1;exitDx=0;exitDy=0;entryX=0.5;entryY=0;entryDx=0;entryDy=0;" parent="1" source="z84m68vEmCcqaCNKbEng-30" target="z84m68vEmCcqaCNKbEng-34" edge="1">
          <mxGeometry relative="1" as="geometry" />
        </mxCell>
        <mxCell id="z84m68vEmCcqaCNKbEng-30" value="Ver usuarios" style="rounded=1;absoluteArcSize=1;arcSize=14;whiteSpace=wrap;strokeWidth=2;" parent="1" vertex="1">
          <mxGeometry x="-605" y="-684" width="79" height="34" as="geometry" />
        </mxCell>
        <mxCell id="z84m68vEmCcqaCNKbEng-32" value="" style="startArrow=none;endArrow=block;exitX=0.5;exitY=1;entryX=0.5;entryY=0;entryDx=0;entryDy=0;exitDx=0;exitDy=0;" parent="1" source="z84m68vEmCcqaCNKbEng-28" target="z84m68vEmCcqaCNKbEng-29" edge="1">
          <mxGeometry relative="1" as="geometry">
            <mxPoint x="-494" y="-892" as="sourcePoint" />
            <mxPoint x="-479" y="-837" as="targetPoint" />
          </mxGeometry>
        </mxCell>
        <mxCell id="z84m68vEmCcqaCNKbEng-33" value="" style="startArrow=none;endArrow=block;exitX=0.5;exitY=1;entryX=0.5;entryY=0;entryDx=0;entryDy=0;exitDx=0;exitDy=0;" parent="1" source="z84m68vEmCcqaCNKbEng-28" target="z84m68vEmCcqaCNKbEng-30" edge="1">
          <mxGeometry relative="1" as="geometry">
            <mxPoint x="-484" y="-882" as="sourcePoint" />
            <mxPoint x="-469" y="-827" as="targetPoint" />
          </mxGeometry>
        </mxCell>
        <mxCell id="z84m68vEmCcqaCNKbEng-34" value="Ver lista" style="rounded=1;absoluteArcSize=1;arcSize=14;whiteSpace=wrap;strokeWidth=2;" parent="1" vertex="1">
          <mxGeometry x="-605" y="-610" width="79" height="34" as="geometry" />
        </mxCell>
        <mxCell id="6egKmJVMOIShGPqOh0Qh-18" style="rounded=0;orthogonalLoop=1;jettySize=auto;html=1;exitX=1;exitY=0.5;exitDx=0;exitDy=0;entryX=0;entryY=0.5;entryDx=0;entryDy=0;" edge="1" parent="1" source="z84m68vEmCcqaCNKbEng-34" target="z84m68vEmCcqaCNKbEng-18">
          <mxGeometry relative="1" as="geometry">
            <mxPoint x="-555" y="-640" as="sourcePoint" />
            <mxPoint x="-555" y="-592" as="targetPoint" />
          </mxGeometry>
        </mxCell>
      </root>
    </mxGraphModel>
  </diagram>
</mxfile>
